<mxfile host="app.diagrams.net" modified="2021-07-08T13:22:38.393Z" agent="5.0 (Macintosh; Intel Mac OS X 10_15_7) AppleWebKit/537.36 (KHTML, like Gecko) Chrome/91.0.4472.114 Safari/537.36" etag="wa84RqqqJCVphwUzuYG9" version="14.8.4" type="github">
  <diagram id="kgpKYQtTHZ0yAKxKKP6v" name="Page-1">
    <mxGraphModel dx="1426" dy="801" grid="1" gridSize="10" guides="1" tooltips="1" connect="1" arrows="1" fold="1" page="1" pageScale="1" pageWidth="850" pageHeight="1100" math="0" shadow="0">
      <root>
        <mxCell id="0" />
        <mxCell id="1" parent="0" />
        <mxCell id="3nuBFxr9cyL0pnOWT2aG-1" value="routes/status/index" style="shape=umlLifeline;perimeter=lifelinePerimeter;container=1;collapsible=0;recursiveResize=0;rounded=0;shadow=0;strokeWidth=1;" parent="1" vertex="1">
          <mxGeometry x="120" y="80" width="100" height="300" as="geometry" />
        </mxCell>
        <mxCell id="3nuBFxr9cyL0pnOWT2aG-2" value="" style="points=[];perimeter=orthogonalPerimeter;rounded=0;shadow=0;strokeWidth=1;" parent="3nuBFxr9cyL0pnOWT2aG-1" vertex="1">
          <mxGeometry x="45" y="70" width="10" height="190" as="geometry" />
        </mxCell>
        <mxCell id="3nuBFxr9cyL0pnOWT2aG-3" value="GET / POST/ PUT / DELETE" style="verticalAlign=bottom;startArrow=oval;endArrow=block;startSize=8;shadow=0;strokeWidth=1;" parent="3nuBFxr9cyL0pnOWT2aG-1" target="3nuBFxr9cyL0pnOWT2aG-2" edge="1">
          <mxGeometry relative="1" as="geometry">
            <mxPoint x="-15" y="70" as="sourcePoint" />
          </mxGeometry>
        </mxCell>
        <mxCell id="3nuBFxr9cyL0pnOWT2aG-5" value="handler" style="shape=umlLifeline;perimeter=lifelinePerimeter;container=1;collapsible=0;recursiveResize=0;rounded=0;shadow=0;strokeWidth=1;" parent="1" vertex="1">
          <mxGeometry x="300" y="80" width="100" height="300" as="geometry" />
        </mxCell>
        <mxCell id="3nuBFxr9cyL0pnOWT2aG-6" value="" style="points=[];perimeter=orthogonalPerimeter;rounded=0;shadow=0;strokeWidth=1;" parent="3nuBFxr9cyL0pnOWT2aG-5" vertex="1">
          <mxGeometry x="45" y="80" width="10" height="130" as="geometry" />
        </mxCell>
        <mxCell id="3nuBFxr9cyL0pnOWT2aG-7" value="" style="verticalAlign=bottom;endArrow=open;dashed=1;endSize=8;exitX=-0.4;exitY=0.488;shadow=0;strokeWidth=1;exitDx=0;exitDy=0;exitPerimeter=0;entryX=1.1;entryY=0.395;entryDx=0;entryDy=0;entryPerimeter=0;" parent="1" source="3nuBFxr9cyL0pnOWT2aG-6" target="3nuBFxr9cyL0pnOWT2aG-2" edge="1">
          <mxGeometry x="-0.1176" y="-67" relative="1" as="geometry">
            <mxPoint x="275" y="236" as="targetPoint" />
            <Array as="points" />
            <mxPoint as="offset" />
          </mxGeometry>
        </mxCell>
        <mxCell id="Mvu7dHBNw9YDYLKHjBDF-5" value="" style="verticalAlign=bottom;endArrow=open;dashed=1;endSize=8;shadow=0;strokeWidth=1;" edge="1" parent="1" source="3nuBFxr9cyL0pnOWT2aG-1" target="3nuBFxr9cyL0pnOWT2aG-5">
          <mxGeometry relative="1" as="geometry">
            <mxPoint x="170" y="179.99999999999977" as="targetPoint" />
            <mxPoint x="340" y="179.99999999999977" as="sourcePoint" />
            <Array as="points">
              <mxPoint x="250" y="200" />
            </Array>
          </mxGeometry>
        </mxCell>
        <mxCell id="Mvu7dHBNw9YDYLKHjBDF-6" value="services" style="shape=umlLifeline;perimeter=lifelinePerimeter;container=1;collapsible=0;recursiveResize=0;rounded=0;shadow=0;strokeWidth=1;" vertex="1" parent="1">
          <mxGeometry x="470" y="80" width="100" height="300" as="geometry" />
        </mxCell>
        <mxCell id="Mvu7dHBNw9YDYLKHjBDF-7" value="" style="points=[];perimeter=orthogonalPerimeter;rounded=0;shadow=0;strokeWidth=1;" vertex="1" parent="Mvu7dHBNw9YDYLKHjBDF-6">
          <mxGeometry x="45" y="80" width="10" height="130" as="geometry" />
        </mxCell>
        <mxCell id="Mvu7dHBNw9YDYLKHjBDF-8" value="repository" style="shape=umlLifeline;perimeter=lifelinePerimeter;container=1;collapsible=0;recursiveResize=0;rounded=0;shadow=0;strokeWidth=1;" vertex="1" parent="1">
          <mxGeometry x="660" y="80" width="150" height="300" as="geometry" />
        </mxCell>
        <mxCell id="Mvu7dHBNw9YDYLKHjBDF-9" value="" style="points=[];perimeter=orthogonalPerimeter;rounded=0;shadow=0;strokeWidth=1;" vertex="1" parent="Mvu7dHBNw9YDYLKHjBDF-8">
          <mxGeometry x="70" y="80" width="10" height="130" as="geometry" />
        </mxCell>
        <mxCell id="Mvu7dHBNw9YDYLKHjBDF-10" value="state-machine db" style="shape=cylinder3;whiteSpace=wrap;html=1;boundedLbl=1;backgroundOutline=1;size=15;" vertex="1" parent="1">
          <mxGeometry x="880" y="80" width="60" height="80" as="geometry" />
        </mxCell>
        <mxCell id="Mvu7dHBNw9YDYLKHjBDF-11" value="" style="verticalAlign=bottom;endArrow=open;dashed=1;endSize=8;shadow=0;strokeWidth=1;" edge="1" parent="1">
          <mxGeometry relative="1" as="geometry">
            <mxPoint x="515" y="200" as="targetPoint" />
            <mxPoint x="335" y="200" as="sourcePoint" />
            <Array as="points">
              <mxPoint x="415.5" y="200" />
            </Array>
          </mxGeometry>
        </mxCell>
        <mxCell id="Mvu7dHBNw9YDYLKHjBDF-12" value="" style="verticalAlign=bottom;endArrow=open;dashed=1;endSize=8;shadow=0;strokeWidth=1;" edge="1" parent="1">
          <mxGeometry relative="1" as="geometry">
            <mxPoint x="730" y="200" as="targetPoint" />
            <mxPoint x="520" y="200" as="sourcePoint" />
            <Array as="points">
              <mxPoint x="600.5" y="200" />
            </Array>
          </mxGeometry>
        </mxCell>
        <mxCell id="Mvu7dHBNw9YDYLKHjBDF-13" value="" style="verticalAlign=bottom;endArrow=open;dashed=1;endSize=8;shadow=0;strokeWidth=1;entryX=1.1;entryY=0.395;entryDx=0;entryDy=0;entryPerimeter=0;" edge="1" parent="1">
          <mxGeometry x="-0.1176" y="-67" relative="1" as="geometry">
            <mxPoint x="360" y="230.80999999999995" as="targetPoint" />
            <mxPoint x="510" y="231" as="sourcePoint" />
            <Array as="points" />
            <mxPoint as="offset" />
          </mxGeometry>
        </mxCell>
        <mxCell id="Mvu7dHBNw9YDYLKHjBDF-14" value="" style="verticalAlign=bottom;endArrow=open;dashed=1;endSize=8;exitX=-0.3;exitY=0.554;shadow=0;strokeWidth=1;exitDx=0;exitDy=0;exitPerimeter=0;" edge="1" parent="1" source="Mvu7dHBNw9YDYLKHjBDF-9">
          <mxGeometry x="-0.1176" y="-67" relative="1" as="geometry">
            <mxPoint x="530" y="231" as="targetPoint" />
            <mxPoint x="705" y="229.20000000000005" as="sourcePoint" />
            <Array as="points" />
            <mxPoint as="offset" />
          </mxGeometry>
        </mxCell>
        <mxCell id="Mvu7dHBNw9YDYLKHjBDF-15" value="" style="endArrow=none;dashed=1;html=1;dashPattern=1 3;strokeWidth=2;entryX=0.5;entryY=1;entryDx=0;entryDy=0;entryPerimeter=0;" edge="1" parent="1" target="Mvu7dHBNw9YDYLKHjBDF-10">
          <mxGeometry width="50" height="50" relative="1" as="geometry">
            <mxPoint x="910" y="380" as="sourcePoint" />
            <mxPoint x="450" y="370" as="targetPoint" />
          </mxGeometry>
        </mxCell>
        <mxCell id="Mvu7dHBNw9YDYLKHjBDF-16" value="" style="endArrow=classic;html=1;dashed=1;" edge="1" parent="1">
          <mxGeometry width="50" height="50" relative="1" as="geometry">
            <mxPoint x="740" y="200" as="sourcePoint" />
            <mxPoint x="910" y="200" as="targetPoint" />
          </mxGeometry>
        </mxCell>
        <mxCell id="Mvu7dHBNw9YDYLKHjBDF-19" value="" style="verticalAlign=bottom;endArrow=none;dashed=1;endSize=8;shadow=0;strokeWidth=1;" edge="1" parent="1">
          <mxGeometry x="-0.1176" y="-67" relative="1" as="geometry">
            <mxPoint x="860" y="250" as="targetPoint" />
            <mxPoint x="910" y="250" as="sourcePoint" />
            <Array as="points" />
            <mxPoint as="offset" />
          </mxGeometry>
        </mxCell>
        <mxCell id="Mvu7dHBNw9YDYLKHjBDF-21" value="redis" style="rounded=1;whiteSpace=wrap;html=1;" vertex="1" parent="1">
          <mxGeometry x="810" y="230" width="60" height="30" as="geometry" />
        </mxCell>
        <mxCell id="Mvu7dHBNw9YDYLKHjBDF-22" value="" style="endArrow=none;dashed=1;html=1;dashPattern=1 3;strokeWidth=2;entryX=0;entryY=0.5;entryDx=0;entryDy=0;" edge="1" parent="1" source="Mvu7dHBNw9YDYLKHjBDF-9" target="Mvu7dHBNw9YDYLKHjBDF-21">
          <mxGeometry width="50" height="50" relative="1" as="geometry">
            <mxPoint x="400" y="420" as="sourcePoint" />
            <mxPoint x="450" y="370" as="targetPoint" />
          </mxGeometry>
        </mxCell>
        <mxCell id="Mvu7dHBNw9YDYLKHjBDF-23" value="&lt;font style=&quot;font-size: 18px&quot;&gt;Existing&lt;/font&gt;" style="text;html=1;strokeColor=none;fillColor=none;align=center;verticalAlign=middle;whiteSpace=wrap;rounded=0;" vertex="1" parent="1">
          <mxGeometry x="80" y="30" width="40" height="20" as="geometry" />
        </mxCell>
        <mxCell id="Mvu7dHBNw9YDYLKHjBDF-24" value="&lt;font style=&quot;font-size: 18px&quot;&gt;With RETURN flow&lt;/font&gt;" style="text;html=1;strokeColor=none;fillColor=none;align=center;verticalAlign=middle;whiteSpace=wrap;rounded=0;" vertex="1" parent="1">
          <mxGeometry x="80" y="460" width="180" height="20" as="geometry" />
        </mxCell>
        <mxCell id="Mvu7dHBNw9YDYLKHjBDF-25" value="routes/status/v2" style="shape=umlLifeline;perimeter=lifelinePerimeter;container=1;collapsible=0;recursiveResize=0;rounded=0;shadow=0;strokeWidth=1;" vertex="1" parent="1">
          <mxGeometry x="120" y="510" width="100" height="300" as="geometry" />
        </mxCell>
        <mxCell id="Mvu7dHBNw9YDYLKHjBDF-26" value="" style="points=[];perimeter=orthogonalPerimeter;rounded=0;shadow=0;strokeWidth=1;" vertex="1" parent="Mvu7dHBNw9YDYLKHjBDF-25">
          <mxGeometry x="45" y="70" width="10" height="190" as="geometry" />
        </mxCell>
        <mxCell id="Mvu7dHBNw9YDYLKHjBDF-27" value="GET / POST/ PUT / DELETE" style="verticalAlign=bottom;startArrow=oval;endArrow=block;startSize=8;shadow=0;strokeWidth=1;" edge="1" parent="Mvu7dHBNw9YDYLKHjBDF-25" target="Mvu7dHBNw9YDYLKHjBDF-26">
          <mxGeometry relative="1" as="geometry">
            <mxPoint x="-15" y="70" as="sourcePoint" />
          </mxGeometry>
        </mxCell>
        <mxCell id="Mvu7dHBNw9YDYLKHjBDF-28" value="index" style="shape=umlLifeline;perimeter=lifelinePerimeter;container=1;collapsible=0;recursiveResize=0;rounded=0;shadow=0;strokeWidth=1;" vertex="1" parent="1">
          <mxGeometry x="300" y="510" width="100" height="300" as="geometry" />
        </mxCell>
        <mxCell id="Mvu7dHBNw9YDYLKHjBDF-29" value="" style="points=[];perimeter=orthogonalPerimeter;rounded=0;shadow=0;strokeWidth=1;" vertex="1" parent="Mvu7dHBNw9YDYLKHjBDF-28">
          <mxGeometry x="45" y="80" width="10" height="130" as="geometry" />
        </mxCell>
        <mxCell id="Mvu7dHBNw9YDYLKHjBDF-30" value="" style="verticalAlign=bottom;endArrow=open;dashed=1;endSize=8;exitX=-0.4;exitY=0.488;shadow=0;strokeWidth=1;exitDx=0;exitDy=0;exitPerimeter=0;entryX=1.1;entryY=0.395;entryDx=0;entryDy=0;entryPerimeter=0;" edge="1" parent="1" source="Mvu7dHBNw9YDYLKHjBDF-29" target="Mvu7dHBNw9YDYLKHjBDF-26">
          <mxGeometry x="-0.1176" y="-67" relative="1" as="geometry">
            <mxPoint x="275" y="666" as="targetPoint" />
            <Array as="points" />
            <mxPoint as="offset" />
          </mxGeometry>
        </mxCell>
        <mxCell id="Mvu7dHBNw9YDYLKHjBDF-31" value="" style="verticalAlign=bottom;endArrow=open;dashed=1;endSize=8;shadow=0;strokeWidth=1;" edge="1" parent="1" source="Mvu7dHBNw9YDYLKHjBDF-25" target="Mvu7dHBNw9YDYLKHjBDF-28">
          <mxGeometry relative="1" as="geometry">
            <mxPoint x="170" y="609.9999999999998" as="targetPoint" />
            <mxPoint x="340" y="609.9999999999998" as="sourcePoint" />
            <Array as="points">
              <mxPoint x="250" y="630" />
            </Array>
          </mxGeometry>
        </mxCell>
        <mxCell id="Mvu7dHBNw9YDYLKHjBDF-32" value="services" style="shape=umlLifeline;perimeter=lifelinePerimeter;container=1;collapsible=0;recursiveResize=0;rounded=0;shadow=0;strokeWidth=1;" vertex="1" parent="1">
          <mxGeometry x="690" y="510" width="100" height="300" as="geometry" />
        </mxCell>
        <mxCell id="Mvu7dHBNw9YDYLKHjBDF-33" value="" style="points=[];perimeter=orthogonalPerimeter;rounded=0;shadow=0;strokeWidth=1;" vertex="1" parent="Mvu7dHBNw9YDYLKHjBDF-32">
          <mxGeometry x="45" y="80" width="10" height="130" as="geometry" />
        </mxCell>
        <mxCell id="Mvu7dHBNw9YDYLKHjBDF-34" value="repository" style="shape=umlLifeline;perimeter=lifelinePerimeter;container=1;collapsible=0;recursiveResize=0;rounded=0;shadow=0;strokeWidth=1;" vertex="1" parent="1">
          <mxGeometry x="880" y="510" width="150" height="300" as="geometry" />
        </mxCell>
        <mxCell id="Mvu7dHBNw9YDYLKHjBDF-35" value="" style="points=[];perimeter=orthogonalPerimeter;rounded=0;shadow=0;strokeWidth=1;" vertex="1" parent="Mvu7dHBNw9YDYLKHjBDF-34">
          <mxGeometry x="70" y="80" width="10" height="130" as="geometry" />
        </mxCell>
        <mxCell id="Mvu7dHBNw9YDYLKHjBDF-36" value="state-machine db" style="shape=cylinder3;whiteSpace=wrap;html=1;boundedLbl=1;backgroundOutline=1;size=15;" vertex="1" parent="1">
          <mxGeometry x="1100" y="510" width="60" height="80" as="geometry" />
        </mxCell>
        <mxCell id="Mvu7dHBNw9YDYLKHjBDF-37" value="If shipmentType==RETURN" style="verticalAlign=bottom;endArrow=open;dashed=1;endSize=8;shadow=0;strokeWidth=1;" edge="1" parent="1">
          <mxGeometry x="0.0556" y="10" relative="1" as="geometry">
            <mxPoint x="515" y="630" as="targetPoint" />
            <mxPoint x="335" y="630" as="sourcePoint" />
            <Array as="points" />
            <mxPoint as="offset" />
          </mxGeometry>
        </mxCell>
        <mxCell id="Mvu7dHBNw9YDYLKHjBDF-38" value="" style="verticalAlign=bottom;endArrow=open;dashed=1;endSize=8;shadow=0;strokeWidth=1;" edge="1" parent="1">
          <mxGeometry relative="1" as="geometry">
            <mxPoint x="950" y="630" as="targetPoint" />
            <mxPoint x="740" y="630" as="sourcePoint" />
            <Array as="points">
              <mxPoint x="820.5" y="630" />
            </Array>
          </mxGeometry>
        </mxCell>
        <mxCell id="Mvu7dHBNw9YDYLKHjBDF-39" value="" style="verticalAlign=bottom;endArrow=open;dashed=1;endSize=8;shadow=0;strokeWidth=1;entryX=1.1;entryY=0.395;entryDx=0;entryDy=0;entryPerimeter=0;" edge="1" parent="1">
          <mxGeometry x="-0.1176" y="-67" relative="1" as="geometry">
            <mxPoint x="360" y="660.81" as="targetPoint" />
            <mxPoint x="510" y="661" as="sourcePoint" />
            <Array as="points" />
            <mxPoint as="offset" />
          </mxGeometry>
        </mxCell>
        <mxCell id="Mvu7dHBNw9YDYLKHjBDF-40" value="" style="verticalAlign=bottom;endArrow=open;dashed=1;endSize=8;exitX=-0.3;exitY=0.554;shadow=0;strokeWidth=1;exitDx=0;exitDy=0;exitPerimeter=0;" edge="1" parent="1" source="Mvu7dHBNw9YDYLKHjBDF-35">
          <mxGeometry x="-0.1176" y="-67" relative="1" as="geometry">
            <mxPoint x="750" y="661" as="targetPoint" />
            <mxPoint x="925" y="659.2" as="sourcePoint" />
            <Array as="points" />
            <mxPoint as="offset" />
          </mxGeometry>
        </mxCell>
        <mxCell id="Mvu7dHBNw9YDYLKHjBDF-41" value="" style="endArrow=none;dashed=1;html=1;dashPattern=1 3;strokeWidth=2;entryX=0.5;entryY=1;entryDx=0;entryDy=0;entryPerimeter=0;" edge="1" parent="1" target="Mvu7dHBNw9YDYLKHjBDF-36">
          <mxGeometry width="50" height="50" relative="1" as="geometry">
            <mxPoint x="1130" y="810" as="sourcePoint" />
            <mxPoint x="670" y="800" as="targetPoint" />
          </mxGeometry>
        </mxCell>
        <mxCell id="Mvu7dHBNw9YDYLKHjBDF-42" value="" style="endArrow=classic;html=1;dashed=1;" edge="1" parent="1">
          <mxGeometry width="50" height="50" relative="1" as="geometry">
            <mxPoint x="960" y="630" as="sourcePoint" />
            <mxPoint x="1130" y="630" as="targetPoint" />
          </mxGeometry>
        </mxCell>
        <mxCell id="Mvu7dHBNw9YDYLKHjBDF-43" value="" style="verticalAlign=bottom;endArrow=none;dashed=1;endSize=8;shadow=0;strokeWidth=1;" edge="1" parent="1">
          <mxGeometry x="-0.1176" y="-67" relative="1" as="geometry">
            <mxPoint x="1080" y="680" as="targetPoint" />
            <mxPoint x="1130" y="680" as="sourcePoint" />
            <Array as="points" />
            <mxPoint as="offset" />
          </mxGeometry>
        </mxCell>
        <mxCell id="Mvu7dHBNw9YDYLKHjBDF-44" value="redis" style="rounded=1;whiteSpace=wrap;html=1;" vertex="1" parent="1">
          <mxGeometry x="1030" y="660" width="60" height="30" as="geometry" />
        </mxCell>
        <mxCell id="Mvu7dHBNw9YDYLKHjBDF-45" value="" style="endArrow=none;dashed=1;html=1;dashPattern=1 3;strokeWidth=2;entryX=0;entryY=0.5;entryDx=0;entryDy=0;" edge="1" parent="1" source="Mvu7dHBNw9YDYLKHjBDF-35" target="Mvu7dHBNw9YDYLKHjBDF-44">
          <mxGeometry width="50" height="50" relative="1" as="geometry">
            <mxPoint x="620" y="850" as="sourcePoint" />
            <mxPoint x="670" y="800" as="targetPoint" />
          </mxGeometry>
        </mxCell>
        <mxCell id="Mvu7dHBNw9YDYLKHjBDF-46" value="v2/handler" style="shape=umlLifeline;perimeter=lifelinePerimeter;container=1;collapsible=0;recursiveResize=0;rounded=0;shadow=0;strokeWidth=1;" vertex="1" parent="1">
          <mxGeometry x="480" y="510" width="100" height="300" as="geometry" />
        </mxCell>
        <mxCell id="Mvu7dHBNw9YDYLKHjBDF-47" value="" style="points=[];perimeter=orthogonalPerimeter;rounded=0;shadow=0;strokeWidth=1;" vertex="1" parent="Mvu7dHBNw9YDYLKHjBDF-46">
          <mxGeometry x="45" y="80" width="10" height="130" as="geometry" />
        </mxCell>
        <mxCell id="Mvu7dHBNw9YDYLKHjBDF-48" value="" style="verticalAlign=bottom;endArrow=open;dashed=1;endSize=8;shadow=0;strokeWidth=1;" edge="1" parent="1">
          <mxGeometry relative="1" as="geometry">
            <mxPoint x="730" y="630" as="targetPoint" />
            <mxPoint x="515" y="630" as="sourcePoint" />
            <Array as="points">
              <mxPoint x="595.5" y="630" />
            </Array>
          </mxGeometry>
        </mxCell>
        <mxCell id="Mvu7dHBNw9YDYLKHjBDF-49" value="" style="verticalAlign=bottom;endArrow=open;dashed=1;endSize=8;shadow=0;strokeWidth=1;entryX=1.1;entryY=0.395;entryDx=0;entryDy=0;entryPerimeter=0;" edge="1" parent="1">
          <mxGeometry x="-0.1176" y="-67" relative="1" as="geometry">
            <mxPoint x="540" y="660.81" as="targetPoint" />
            <mxPoint x="730" y="661" as="sourcePoint" />
            <Array as="points" />
            <mxPoint as="offset" />
          </mxGeometry>
        </mxCell>
      </root>
    </mxGraphModel>
  </diagram>
</mxfile>
